<svg xmlns="http://www.w3.org/2000/svg" viewBox="0 0 386.26 28.54"><path d="M46.88 28.17L41 17.52h-2.51v10.65h-6.38V.32h10.34c5.32 0 10.41 2.26 10.41 8.36 0 5.29-3.39 7.34-5.45 8l7.06 11.5zm-5.36-22.8h-3.07v7.14h3.07c2.42 0 4.76-.72 4.76-3.59s-2.34-3.55-4.76-3.55zm68.59 19.51l6-12.95v16.24h6.5V.36h-8.06L108 15.27 101.48.36h-8.06v27.81h6.5V11.93l6 13zm108.2 3.29V.36h-6.5v16.25L198.62.36h-5.5v27.81h6.5V11.93l13.52 16.24zm66.24 0V.36h-6.5v16.25L264.87.36h-5.5v27.81h6.5V11.93l13.51 16.24zM0 14.21a14.14 14.14 0 0125.83-8l-4.92 3.4A7.46 7.46 0 0014.41 6a7.92 7.92 0 00-8 8.2c0 4.6 3.23 8.31 8 8.31a7.42 7.42 0 006.54-3.63l4.92 3.47A14.16 14.16 0 010 14.21zm58.53 0a14.19 14.19 0 1114.21 14.33 14.2 14.2 0 01-14.21-14.29zm22 0c0-4.6-3.19-8.21-7.83-8.21s-7.79 3.64-7.79 8.28 3.09 8.28 7.79 8.28 7.83-3.67 7.83-8.31zm144.28 0A14.19 14.19 0 11239 28.54a14.19 14.19 0 01-14.19-14.29zm22 0C246.8 9.61 243.61 6 239 6s-7.79 3.64-7.79 8.28 3.11 8.31 7.79 8.31 7.8-3.7 7.8-8.34zm76.49 0a14.15 14.15 0 0125.84-8l-4.94 3.4A7.44 7.44 0 00337.7 6a7.92 7.92 0 00-8 8.2c0 4.6 3.23 8.31 8 8.31a7.4 7.4 0 006.54-3.63l4.93 3.47a14.17 14.17 0 01-25.84-8.15zm30.09 4.52c0-6 4.85-9.85 10.22-9.85s10.25 3.87 10.25 9.85-4.86 9.81-10.26 9.81-10.22-3.88-10.22-9.81zm14.37 0a4.16 4.16 0 10-8.31 0 4.16 4.16 0 108.31 0zm11.16 6.21a3.55 3.55 0 013.64-3.51 3.56 3.56 0 11-3.64 3.51zM185.37 13.13h-12.6v5.12H179v3a7.66 7.66 0 01-5.17 1.67c-4.48 0-7.91-4-7.91-8.6a8.09 8.09 0 017.91-8.4 7.81 7.81 0 016 2.79l4.68-3.92A13.78 13.78 0 00173.86 0a14.27 14.27 0 100 28.54c5 0 9.16-1.85 11.51-5.85zm127.69 8.66l5.55-8.71.12-.18h-6.46l-3 5-3.27-3.51c2.85-1.44 5.45-3.32 5.45-7.08C311.4 3 307.93 0 303 0s-8.79 3.13-8.79 7.27c0 2.44 1.35 4.14 3 5.93-2.33 1.27-4.95 3.22-4.95 7.08 0 4.84 3.88 8.22 9.44 8.22a12.34 12.34 0 007.69-2.6l2.24 2.25h7.59zm-10.57-11c-1.49-1.63-2.19-2.54-2.19-3.48 0-1.28 1.14-2.2 2.71-2.2a2.48 2.48 0 012.7 2.41c0 1.48-1.23 2.33-3.22 3.3zm3.2 11.26a5.75 5.75 0 01-3.37 1.16c-2.09 0-3.61-1.33-3.61-3.17 0-1.26.64-2.22 2.07-3.11zM149.5 28.17h6.74L146 .36h-6.9l-10.3 27.81h6.79l1.79-4.79h10.32zm-10.21-9.92l3.25-8.67 3.25 8.67z" fill="#111"/></svg>