<svg xmlns="http://www.w3.org/2000/svg" viewBox="0 0 386.26 28.54"><defs><style>.cls-1{fill:#111;}</style></defs><g id="レイヤー_2" data-name="レイヤー 2"><g id="レイヤー_1-2" data-name="レイヤー 1"><path class="cls-1" d="M46.88,28.17,41,17.52H38.49V28.17H32.11V.32H42.45c5.32,0,10.41,2.26,10.41,8.36,0,5.29-3.39,7.34-5.45,8l7.06,11.5ZM41.52,5.37H38.45v7.14h3.07c2.42,0,4.76-.72,4.76-3.59S43.94,5.37,41.52,5.37Z"/><polygon class="cls-1" points="110.11 24.88 116.11 11.93 116.11 28.17 122.6 28.17 122.6 0.36 114.54 0.36 108.01 15.27 101.48 0.36 93.42 0.36 93.42 28.17 99.92 28.17 99.92 11.93 105.92 24.88 110.11 24.88"/><polygon class="cls-1" points="218.31 28.17 218.31 0.36 211.81 0.36 211.81 16.61 198.62 0.36 193.12 0.36 193.12 28.17 199.62 28.17 199.62 11.93 213.13 28.17 218.31 28.17"/><polygon class="cls-1" points="284.55 28.17 284.55 0.36 278.05 0.36 278.05 16.61 264.87 0.36 259.37 0.36 259.37 28.17 265.87 28.17 265.87 11.93 279.38 28.17 284.55 28.17"/><path class="cls-1" d="M0,14.21a14.14,14.14,0,0,1,25.83-8L20.91,9.61A7.46,7.46,0,0,0,14.41,6a7.92,7.92,0,0,0-8,8.2c0,4.6,3.23,8.31,8,8.31a7.42,7.42,0,0,0,6.54-3.63l4.92,3.47A14.16,14.16,0,0,1,0,14.21Z"/><path class="cls-1" d="M58.53,14.25A14.19,14.19,0,1,1,72.74,28.54,14.2,14.2,0,0,1,58.53,14.25Zm22,0C80.53,9.61,77.34,6,72.7,6s-7.79,3.64-7.79,8.28S68,22.56,72.7,22.56,80.53,18.89,80.53,14.25Z"/><path class="cls-1" d="M224.81,14.25A14.19,14.19,0,1,1,239,28.54,14.19,14.19,0,0,1,224.81,14.25Zm22,0C246.8,9.61,243.61,6,239,6s-7.79,3.64-7.79,8.28,3.11,8.31,7.79,8.31S246.8,18.89,246.8,14.25Z"/><path class="cls-1" d="M323.29,14.21a14.15,14.15,0,0,1,25.84-8L344.2,9.61A7.44,7.44,0,0,0,337.7,6a7.92,7.92,0,0,0-8,8.2c0,4.6,3.23,8.31,8,8.31a7.4,7.4,0,0,0,6.54-3.63l4.93,3.47a14.17,14.17,0,0,1-25.84-8.15Z"/><path class="cls-1" d="M353.38,18.73c0-6,4.85-9.85,10.22-9.85s10.25,3.87,10.25,9.85S369,28.54,363.6,28.54,353.38,24.66,353.38,18.73Zm14.37,0a4.16,4.16,0,1,0-8.31,0,4.16,4.16,0,1,0,8.31,0Z"/><path class="cls-1" d="M378.91,24.94a3.55,3.55,0,0,1,3.64-3.51,3.56,3.56,0,1,1-3.64,3.51Z"/><path class="cls-1" d="M185.37,13.13h-12.6v5.12H179v3a7.66,7.66,0,0,1-5.17,1.67c-4.48,0-7.91-4-7.91-8.6a8.09,8.09,0,0,1,7.91-8.4,7.81,7.81,0,0,1,6,2.79l4.68-3.92A13.78,13.78,0,0,0,173.86,0a14.27,14.27,0,1,0,0,28.54c5,0,9.16-1.85,11.51-5.85Z"/><path class="cls-1" d="M313.06,21.79l5.55-8.71.12-.18h-6.46l-3,5L306,14.39c2.85-1.44,5.45-3.32,5.45-7.08C311.4,3,307.93,0,303,0s-8.79,3.13-8.79,7.27c0,2.44,1.35,4.14,3,5.93-2.33,1.27-4.95,3.22-4.95,7.08,0,4.84,3.88,8.22,9.44,8.22a12.34,12.34,0,0,0,7.69-2.6l2.24,2.25h7.59Zm-10.57-11C301,9.16,300.3,8.25,300.3,7.31c0-1.28,1.14-2.2,2.71-2.2a2.48,2.48,0,0,1,2.7,2.41C305.71,9,304.48,9.85,302.49,10.82Zm3.2,11.26a5.75,5.75,0,0,1-3.37,1.16c-2.09,0-3.61-1.33-3.61-3.17,0-1.26.64-2.22,2.07-3.11Z"/><path class="cls-1" d="M149.5,28.17h6.74L146,.36h-6.9l-10.3,27.81h6.79l1.79-4.79H147.7Zm-10.21-9.92,3.25-8.67,3.25,8.67Z"/></g></g></svg>